HIERARCHY
ROOT joint_0
{
	OFFSET 0.000000 0.000000 0.000000
	CHANNELS 6 Xposition Yposition Zposition Zrotation Yrotation Xrotation 
	JOINT joint_1
	{
		OFFSET 11.612000 -0.419000 106.198000
		CHANNELS 3 Zrotation Yrotation Xrotation
		JOINT joint_2
		{
			OFFSET -1.708000 -1.022000 97.564090
			CHANNELS 3 Zrotation Yrotation Xrotation
			JOINT joint_3
			{
				OFFSET -4.121000 -1.538000 97.375000
				CHANNELS 3 Zrotation Yrotation Xrotation
				JOINT joint_4
				{
					OFFSET 5.442000 -2.123000 132.795900
					CHANNELS 3 Zrotation Yrotation Xrotation
					JOINT joint_5
					{
						OFFSET 21.935000 0.195000 82.975100
						CHANNELS 3 Zrotation Yrotation Xrotation
						End Site
						{
							OFFSET 0.000000 0.000000 0.000000
						}
					}
				}
				JOINT joint_6
				{
					OFFSET 4.262000 -30.048000 73.899900
					CHANNELS 3 Zrotation Yrotation Xrotation
					JOINT joint_7
					{
						OFFSET 9.731000 -136.810010 -21.963010
						CHANNELS 3 Zrotation Yrotation Xrotation
						JOINT joint_8
						{
							OFFSET 33.360000 -35.709000 -267.597900
							CHANNELS 3 Zrotation Yrotation Xrotation
							JOINT joint_9
							{
								OFFSET 36.156000 -29.759000 -240.558040
								CHANNELS 3 Zrotation Yrotation Xrotation
								End Site
								{
									OFFSET 0.000000 0.000000 0.000000
								}
							}
						}
					}
				}
				JOINT joint_10
				{
					OFFSET 2.027000 27.734000 74.914920
					CHANNELS 3 Zrotation Yrotation Xrotation
					JOINT joint_11
					{
						OFFSET -5.183000 136.784000 -23.604980
						CHANNELS 3 Zrotation Yrotation Xrotation
						JOINT joint_12
						{
							OFFSET 29.806000 37.229000 -267.809940
							CHANNELS 3 Zrotation Yrotation Xrotation
							JOINT joint_13
							{
								OFFSET 36.890000 46.524990 -237.772030
								CHANNELS 3 Zrotation Yrotation Xrotation
								End Site
								{
									OFFSET 0.000000 0.000000 0.000000
								}
							}
						}
					}
				}
			}
		}
	}
	JOINT joint_14
	{
		OFFSET -7.290000 -102.873990 -124.314940
		CHANNELS 3 Zrotation Yrotation Xrotation
		JOINT joint_15
		{
			OFFSET -15.466000 -19.909010 -438.533020
			CHANNELS 3 Zrotation Yrotation Xrotation
			JOINT joint_16
			{
				OFFSET -26.899000 -18.922000 -464.797000
				CHANNELS 3 Zrotation Yrotation Xrotation
				JOINT joint_17
				{
					OFFSET 179.329000 -12.011000 -84.174000
					CHANNELS 3 Zrotation Yrotation Xrotation
					End Site
					{
						OFFSET 0.000000 0.000000 0.000000
					}
				}
			}
		}
	}
	JOINT joint_18
	{
		OFFSET -6.225000 101.546000 -125.479980
		CHANNELS 3 Zrotation Yrotation Xrotation
		JOINT joint_19
		{
			OFFSET -13.973000 7.996000 -438.963010
			CHANNELS 3 Zrotation Yrotation Xrotation
			JOINT joint_20
			{
				OFFSET -44.294000 5.716000 -463.813970
				CHANNELS 3 Zrotation Yrotation Xrotation
				JOINT joint_21
				{
					OFFSET 178.505000 -4.689000 -85.139000
					CHANNELS 3 Zrotation Yrotation Xrotation
					End Site
					{
						OFFSET 0.000000 0.000000 0.000000
					}
				}
			}
		}
	}
}
MOTION
Frames: 16
Frame Time: 0.016667
131.041000 -28.408000 1150.170040 6.506847 -1.926187 1.355267 1.288760 14.189219 -0.055467 -0.974627 -2.330982 0.004764 -1.127420 2.224128 -0.016646 -0.694421 6.922770 1.765604 0.000000 0.000000 0.000000 -4.626368 0.915367 -0.618166 -0.457690 0.302079 0.057776 2.764026 -18.835751 5.236190 0.000000 0.000000 0.000000 -1.328104 1.762011 -0.560641 0.016486 2.107008 1.996282 -1.106046 -2.138874 -4.120377 0.000000 0.000000 0.000000 -1.336703 -15.669288 -3.917621 -2.310906 48.303171 2.609921 3.138861 8.691257 1.786151 0.000000 0.000000 0.000000 -0.132258 -0.532254 0.829287 0.295816 20.513357 0.852790 1.550066 4.645799 0.797375 0.000000 0.000000 0.000000 
140.432010 -28.878000 1149.337040 6.213031 -2.037631 1.556050 1.398948 14.767898 -0.374471 -1.220291 -2.412489 0.077959 -1.417921 2.287116 -0.026760 -0.724896 6.815486 1.936650 0.000000 0.000000 0.000000 -4.894258 0.439116 -0.564343 -0.389133 -0.232411 0.037021 3.106279 -20.750768 5.926709 0.000000 0.000000 0.000000 -1.470496 1.652510 -0.346036 0.033578 2.018739 2.156910 -1.158462 -2.355617 -4.213971 0.000000 0.000000 0.000000 -1.908393 -17.755652 -4.374647 -2.636795 50.643651 2.895172 2.193789 8.159608 1.384740 0.000000 0.000000 0.000000 -0.041049 0.025197 0.635191 0.312496 20.701803 0.908337 1.639179 4.821659 0.834377 0.000000 0.000000 0.000000 
150.549000 -29.302000 1148.795040 5.892932 -2.014504 1.589539 1.359828 15.109711 -0.430782 -1.345243 -2.510134 0.120362 -1.556634 2.357572 -0.021849 -0.735394 6.787156 2.024882 0.000000 0.000000 0.000000 -5.097696 -0.027861 -0.219014 -0.341223 -0.797528 -0.398398 3.417176 -22.227108 6.603823 0.000000 0.000000 0.000000 -1.484393 1.313008 -0.500675 0.121950 1.706381 2.459090 -0.982286 -1.731714 -3.950246 0.000000 0.000000 0.000000 -2.124342 -19.228947 -4.731269 -2.744399 50.805859 3.672807 1.430922 6.837229 1.019891 0.000000 0.000000 0.000000 0.212090 0.700273 0.536144 0.456810 20.483666 1.141651 1.811877 5.016985 0.909749 0.000000 0.000000 0.000000 
161.231990 -29.869000 1148.329960 5.541130 -1.867745 1.520418 1.205593 15.263389 -0.320885 -1.380030 -2.605690 0.128926 -1.578398 2.435516 -0.008594 -0.732646 6.763969 2.064563 0.000000 0.000000 0.000000 -5.256622 -0.502367 0.289514 -0.282733 -1.388806 -0.988135 3.684182 -23.305881 7.135719 0.000000 0.000000 0.000000 -1.435448 0.808712 -0.878162 0.248686 1.236456 2.836083 -0.644750 -0.561975 -3.357812 0.000000 0.000000 0.000000 -2.145976 -20.302757 -4.984771 -2.786533 49.354941 4.722199 0.758727 4.999449 0.654798 0.000000 0.000000 0.000000 0.550384 1.426061 0.515453 0.683654 19.983926 1.462149 2.026610 5.218858 1.004718 0.000000 0.000000 0.000000 
172.417010 -30.947000 1147.943970 5.122125 -1.630777 1.461654 0.993290 15.320410 -0.212709 -1.347156 -2.661024 0.123721 -1.515076 2.496639 -0.003881 -0.724616 6.708680 2.084373 0.000000 0.000000 0.000000 -5.355890 -0.942091 0.676853 -0.168283 -1.909828 -1.223994 3.867728 -23.932131 7.332855 0.000000 0.000000 0.000000 -1.403486 0.315949 -1.153416 0.350191 0.768345 2.988604 -0.264660 0.534430 -2.385301 0.000000 0.000000 0.000000 -2.106437 -21.205696 -5.019262 -2.859986 46.837092 5.432143 0.021563 3.331239 0.258483 0.000000 0.000000 0.000000 0.844998 2.045830 0.556542 0.904789 19.518146 1.691109 2.195594 5.559968 1.084205 0.000000 0.000000 0.000000 
184.048000 -32.633000 1147.739010 4.616549 -1.328832 1.474007 0.714273 15.355686 -0.210654 -1.244705 -2.674590 0.131347 -1.366710 2.514865 -0.005645 -0.714020 6.599205 2.092462 0.000000 0.000000 0.000000 -5.376060 -1.326488 0.787911 0.022106 -2.310220 -0.842567 3.926385 -24.010385 7.045132 0.000000 0.000000 0.000000 -1.429854 -0.117912 -1.190066 0.408662 0.339160 2.703198 0.164131 1.382250 -0.774678 0.000000 0.000000 0.000000 -2.038129 -21.839987 -4.823696 -3.002973 42.885927 5.617201 -0.864271 2.409512 -0.168329 0.000000 0.000000 0.000000 1.043941 2.541124 0.625433 1.079345 19.155506 1.767739 2.264829 6.130816 1.127295 0.000000 0.000000 0.000000 
196.182010 -34.830000 1147.612060 4.145461 -0.994876 1.554789 0.363542 15.405726 -0.303668 -1.118032 -2.689165 0.169373 -1.188660 2.499248 -0.004712 -0.703090 6.456114 2.091854 0.000000 0.000000 0.000000 -5.342105 -1.664498 0.742100 0.250393 -2.623395 -0.085432 3.884456 -23.676622 6.411510 0.000000 0.000000 0.000000 -1.480765 -0.541041 -1.131230 0.451266 -0.088184 2.201546 0.642939 2.165065 1.219934 0.000000 0.000000 0.000000 -2.011109 -22.024552 -4.475456 -3.237039 37.421751 5.407579 -1.796449 2.339526 -0.579797 0.000000 0.000000 0.000000 1.161177 2.985104 0.674959 1.207494 18.820040 1.783627 2.263515 6.877954 1.144536 0.000000 0.000000 0.000000 
208.925000 -37.615000 1147.261960 3.795570 -0.620734 1.681322 0.026603 15.401693 -0.424008 -1.022043 -2.690651 0.211048 -1.049873 2.480045 -0.009233 -0.698791 6.316938 2.103393 0.000000 0.000000 0.000000 -5.312873 -1.953728 0.665074 0.476989 -2.877013 0.799457 3.800538 -23.213164 5.668252 0.000000 0.000000 0.000000 -1.535914 -0.911152 -1.028423 0.482166 -0.461844 1.779235 1.042285 2.806503 2.870706 0.000000 0.000000 0.000000 -2.166439 -22.022353 -3.927078 -3.595281 31.598622 4.703653 -2.686281 2.498905 -0.974332 0.000000 0.000000 0.000000 1.211928 3.312421 0.720574 1.289791 18.622253 1.775832 2.243713 7.682780 1.154093 0.000000 0.000000 0.000000 
222.257000 -41.110000 1146.744020 3.542175 -0.101552 1.805638 -0.259949 15.206889 -0.498400 -0.956486 -2.626598 0.217986 -0.950355 2.461925 -0.028596 -0.700540 6.179574 2.126487 0.000000 0.000000 0.000000 -5.308328 -2.214364 0.591545 0.712305 -3.095730 1.858292 3.659994 -22.576354 4.737389 0.000000 0.000000 0.000000 -1.601461 -1.201648 -0.854868 0.499715 -0.754765 1.468900 1.326277 3.298669 3.968747 0.000000 0.000000 0.000000 -2.572241 -22.052732 -3.013012 -4.105077 25.473112 3.308714 -3.572119 2.635957 -1.374689 0.000000 0.000000 0.000000 1.216189 3.394733 0.827852 1.339226 18.587411 1.731385 2.221698 8.526021 1.162952 0.000000 0.000000 0.000000 
236.197010 -45.193000 1146.001950 3.490444 0.412339 2.021942 -0.542561 15.039807 -0.656178 -0.959188 -2.582516 0.262826 -0.931143 2.430047 -0.050252 -0.705644 6.044079 2.153456 0.000000 0.000000 0.000000 -5.310571 -2.428580 0.491679 0.938988 -3.257644 3.035703 3.470139 -21.808632 3.686557 0.000000 0.000000 0.000000 -1.667314 -1.432717 -0.603810 0.501092 -0.992818 1.183538 1.528760 3.645014 4.733221 0.000000 0.000000 0.000000 -3.176032 -21.727478 -1.970075 -4.676574 18.631851 1.579548 -4.383296 3.253725 -1.703623 0.000000 0.000000 0.000000 1.142982 3.397718 0.889483 1.306817 18.681984 1.684885 2.148617 9.464838 1.150970 0.000000 0.000000 0.000000 
250.908000 -49.568000 1144.562010 3.654912 0.703637 2.378805 -0.809867 15.061128 -0.919048 -1.025029 -2.614168 0.369113 -0.986531 2.401839 -0.058387 -0.714031 5.958438 2.183322 0.000000 0.000000 0.000000 -5.316921 -2.535860 0.375879 1.094861 -3.318493 3.945610 3.341426 -21.304710 2.987810 0.000000 0.000000 0.000000 -1.685543 -1.630328 -0.361581 0.481651 -1.203782 1.028093 1.618732 3.780552 5.089443 0.000000 0.000000 0.000000 -3.777919 -20.887764 -1.184703 -5.123326 12.145628 0.215342 -4.964982 3.684378 -1.926362 0.000000 0.000000 0.000000 1.014855 3.557705 0.827150 1.204287 18.945829 1.678526 2.050599 10.417876 1.126252 0.000000 0.000000 0.000000 
266.672000 -54.215000 1142.317020 3.830111 0.868992 2.706968 -1.000209 15.005561 -1.006904 -1.050362 -2.617972 0.387605 -0.998255 2.421035 -0.057622 -0.731702 5.928873 2.236018 0.000000 0.000000 0.000000 -5.356127 -2.504782 0.250741 1.164512 -3.258631 4.440081 3.331829 -21.190829 2.892232 0.000000 0.000000 0.000000 -1.633615 -1.793905 -0.164988 0.440836 -1.386790 1.096401 1.563843 3.669597 4.906385 0.000000 0.000000 0.000000 -4.234238 -19.543114 -0.456585 -5.361795 6.216188 -0.758982 -5.265732 2.075935 -2.149127 0.000000 0.000000 0.000000 0.928784 3.831320 0.829112 1.144096 19.365549 1.666536 2.024293 11.294559 1.128919 0.000000 0.000000 0.000000 
283.207000 -59.155000 1139.374020 4.044601 0.913879 3.048951 -1.138510 14.947741 -1.000018 -1.057461 -2.620340 0.359700 -0.991118 2.462431 -0.050966 -0.754102 5.952912 2.295736 0.000000 0.000000 0.000000 -5.400823 -2.369605 0.099280 1.175235 -3.100224 4.677701 3.393183 -21.326439 3.159683 0.000000 0.000000 0.000000 -1.539424 -1.928424 -0.002919 0.381819 -1.544531 1.317020 1.394208 3.344050 4.313466 0.000000 0.000000 0.000000 -4.570166 -17.905099 0.191294 -5.422768 0.793624 -1.561095 -5.446424 -0.452461 -2.374237 0.000000 0.000000 0.000000 0.838992 4.176046 0.855675 1.081780 19.957669 1.643360 2.022261 12.157054 1.139421 0.000000 0.000000 0.000000 
299.827000 -64.146000 1135.584960 4.238626 0.745479 3.521405 -1.244526 15.076617 -1.090327 -1.041504 -2.676907 0.393239 -0.964242 2.493251 -0.036331 -0.768268 6.060983 2.316714 0.000000 0.000000 0.000000 -5.368787 -2.174843 -0.098494 1.136148 -2.870257 4.731164 3.484213 -21.698275 3.534973 0.000000 0.000000 0.000000 -1.436379 -2.079349 0.078464 0.307584 -1.717951 1.587230 1.170370 2.841215 3.613955 0.000000 0.000000 0.000000 -4.751601 -16.743759 0.437562 -5.433172 -2.476749 -2.059454 -5.620977 -1.495063 -2.499331 0.000000 0.000000 0.000000 0.676975 4.607915 0.755742 0.952172 20.831264 1.594904 1.959221 13.033832 1.121752 0.000000 0.000000 0.000000 
316.420010 -69.010000 1130.456050 4.217116 0.373102 4.151844 -1.291862 15.306009 -1.247370 -0.912724 -2.721241 0.432135 -0.819994 2.492745 -0.023846 -0.772170 6.292870 2.286765 0.000000 0.000000 0.000000 -5.192841 -1.877178 -0.423217 1.029365 -2.502240 4.636117 3.606458 -22.437668 4.001654 0.000000 0.000000 0.000000 -1.341299 -2.245881 0.060243 0.218291 -1.901878 1.933936 0.876562 2.087179 2.793116 0.000000 0.000000 0.000000 -4.741758 -16.545286 0.258211 -5.524427 -2.382129 -2.241832 -5.779422 -0.202699 -2.475393 0.000000 0.000000 0.000000 0.482891 5.203379 0.476257 0.811968 21.900007 1.492150 1.850820 13.915775 1.083171 0.000000 0.000000 0.000000 
333.097990 -73.925000 1124.482060 4.006922 -0.098795 4.769631 -1.278005 15.520102 -1.259475 -0.680463 -2.711182 0.399855 -0.564121 2.473054 -0.007633 -0.771062 6.605889 2.223054 0.000000 0.000000 0.000000 -4.936704 -1.514023 -0.789320 0.865576 -2.055336 4.362609 3.748853 -23.423861 4.568981 0.000000 0.000000 0.000000 -1.233753 -2.430947 -0.061787 0.122212 -2.101301 2.359319 0.531279 1.164673 1.843138 0.000000 0.000000 0.000000 -4.591039 -16.970830 -0.067137 -5.685732 0.023163 -2.236285 -5.917255 1.956853 -2.396791 0.000000 0.000000 0.000000 0.256085 5.800254 0.228431 0.668170 23.242632 1.283844 1.693706 14.807500 1.022844 0.000000 0.000000 0.000000 
